<svg id="visual" viewBox="0 0 960 540" width="960" height="540" xmlns="http://www.w3.org/2000/svg" xmlns:xlink="http://www.w3.org/1999/xlink" version="1.1"><rect x="0" y="0" width="960" height="540" fill="#2c2c2c"></rect><path d="M0 319L137 339L274 377L411 349L549 384L686 382L823 339L960 369L960 541L823 541L686 541L549 541L411 541L274 541L137 541L0 541Z" fill="#f5730a"></path><path d="M0 359L137 419L274 408L411 418L549 411L686 388L823 375L960 381L960 541L823 541L686 541L549 541L411 541L274 541L137 541L0 541Z" fill="#da5b09"></path><path d="M0 438L137 403L274 394L411 447L549 448L686 443L823 405L960 453L960 541L823 541L686 541L549 541L411 541L274 541L137 541L0 541Z" fill="#be4407"></path><path d="M0 447L137 451L274 449L411 484L549 469L686 478L823 462L960 441L960 541L823 541L686 541L549 541L411 541L274 541L137 541L0 541Z" fill="#a32d04"></path><path d="M0 488L137 509L274 490L411 477L549 482L686 480L823 512L960 484L960 541L823 541L686 541L549 541L411 541L274 541L137 541L0 541Z" fill="#871400"></path></svg>